<svg width="240" height="80" viewBox="0 0 240 80" fill="none" xmlns="http://www.w3.org/2000/svg">
<g clip-path="url(#clip0)">
<path d="M42.7493 44.3636V36.1818H51.777V40.3636H56.1104V52.7272H51.777V56.909H43.1104V48.5454H47.4437V44.3636H42.7493V44.3636Z" fill="#E24D03"/>
<path d="M64.7776 2.18274H22.5276V30.3645H64.7776V2.18274Z" fill="#FFAC27"/>
<path d="M39.5002 0H34.6252V6.90909H39.5002V0Z" fill="#436814"/>
<path d="M31.9166 14.9092H26.8611V17.6375H31.7361L31.9166 14.9092Z" fill="#F49211"/>
<path d="M40.2224 14.9092H35.3474V17.6375H40.2224V14.9092Z" fill="#F49211"/>
<path d="M36.0691 20.1818H31.1941V22.9101H36.0691V20.1818Z" fill="#F49211"/>
<path d="M51.2363 0H46.3613V6.90909H51.2363V0Z" fill="#436814"/>
<path d="M22.5275 5.45447H17.4719V10.7272H22.5275V5.45447Z" fill="#E24D03"/>
<path d="M22.5275 14.3636H17.4719V19.6364H22.5275V14.3636Z" fill="#E24D03"/>
<path d="M22.5275 23.0909H17.4719V28.3637H22.5275V23.0909Z" fill="#E24D03"/>
<path d="M49.222 64.4446H38.1108V80.0001H49.222V64.4446Z" fill="#E24D03"/>
<path d="M22.372 30V61.6667H11.6473V65.5556H7V71.1111H43.285V65.7408H48.1111V30H22.372V30Z" fill="#FFAC27"/>
<path d="M40.8646 30.1852V61.6667L31.4443 70.7407V71.1111H40.8646H43.2197V65.7407H48.111V30L40.8646 30.1852Z" fill="#FFD150"/>
<path d="M32.5554 61.1112H27.6463V65.6959H22.5554V80.0001H32.5554V61.1112Z" fill="#F76400"/>
<path d="M64.7774 19.6364H44.9163V22.1828H64.7774V19.6364Z" fill="white"/>
<path d="M28.3052 44.3636V36.1818H19.2774V40.3636H14.9441V52.7272H19.2774V56.909H27.9441V48.5454H23.6108V44.3636H28.3052V44.3636Z" fill="#F76400"/>
<path d="M124.302 51.3514L117.13 47.4138L121.475 39.5003L125.141 41.5129L127.226 37.7144L138.064 43.6645L135.978 47.463L139.644 49.4756L135.473 57.0726L128.142 53.0475L130.227 49.249L126.562 47.2364L124.302 51.3514V51.3514Z" fill="#E24D03"/>
<path d="M144.778 2.18274H102.528V30.3645H144.778V2.18274Z" fill="#FFAC27"/>
<path d="M119.5 0H114.625V6.90909H119.5V0Z" fill="#436814"/>
<path d="M111.917 14.9092H106.861V17.6375H111.736L111.917 14.9092Z" fill="#F49211"/>
<path d="M120.223 14.9092H115.348V17.6375H120.223V14.9092Z" fill="#F49211"/>
<path d="M116.069 20.1818H111.194V22.9101H116.069V20.1818Z" fill="#F49211"/>
<path d="M131.236 0H126.361V6.90909H131.236V0Z" fill="#436814"/>
<path d="M102.527 5.45447H97.4719V10.7272H102.527V5.45447Z" fill="#E24D03"/>
<path d="M102.527 14.3636H97.4719V19.6364H102.527V14.3636Z" fill="#E24D03"/>
<path d="M102.527 23.0909H97.4719V28.3637H102.527V23.0909Z" fill="#E24D03"/>
<path d="M128.038 60.9622L118.777 67.1014L127.372 80.0669L136.633 73.9276L128.038 60.9622Z" fill="#E24D03"/>
<path d="M102.372 30V61.6667H91.6473V65.5556H87V71.1111H123.285V65.7408H128.111V30H102.372V30Z" fill="#FFAC27"/>
<path d="M120.865 30.1852V61.6667L111.444 70.7407V71.1111H120.865H123.22V65.7407H128.111V30L120.865 30.1852Z" fill="#FFD150"/>
<path d="M114.74 63.0135L110.244 61.0432L108.404 65.2424L103.741 63.1992L98.0001 76.3008L107.159 80.3143L114.74 63.0135Z" fill="#F76400"/>
<path d="M144.777 19.6364H124.916V22.1828H144.777V19.6364Z" fill="white"/>
<path d="M107.478 50.4349L113.898 45.3628L108.302 38.279L105.02 40.8714L102.334 37.4712L92.6328 45.1356L95.3191 48.5358L92.0378 51.1282L97.4104 57.9287L103.973 52.7439L101.287 49.3437L104.568 46.7513L107.478 50.4349V50.4349Z" fill="#F76400"/>
<path d="M208.182 39L200 39L200 48.0278L204.182 48.0278L204.182 52.3611L216.545 52.3611L216.545 48.0278L220.727 48.0278L220.727 39.3611L212.364 39.3611L212.364 43.6945L208.182 43.6945L208.182 39V39Z" fill="#E24D03"/>
<path d="M224.778 2.18274H182.528V30.3645H224.778V2.18274Z" fill="#FFAC27"/>
<path d="M199.5 0H194.625V6.90909H199.5V0Z" fill="#436814"/>
<path d="M191.917 14.9092H186.861V17.6375H191.736L191.917 14.9092Z" fill="#F49211"/>
<path d="M200.223 14.9092H195.348V17.6375H200.223V14.9092Z" fill="#F49211"/>
<path d="M196.069 20.1818H191.194V22.9101H196.069V20.1818Z" fill="#F49211"/>
<path d="M211.236 0H206.361V6.90909H211.236V0Z" fill="#436814"/>
<path d="M182.528 5.45447H177.472V10.7272H182.528V5.45447Z" fill="#E24D03"/>
<path d="M182.528 14.3636H177.472V19.6364H182.528V14.3636Z" fill="#E24D03"/>
<path d="M182.528 23.0909H177.472V28.3637H182.528V23.0909Z" fill="#E24D03"/>
<path d="M203 60L203 71.1111L218.556 71.1111L218.556 60L203 60Z" fill="#E24D03"/>
<path d="M182.372 30V61.6667H171.647V65.5556H167V71.1111H203.285V65.7408H208.111V30H182.372V30Z" fill="#FFAC27"/>
<path d="M200.865 30.1852V61.6667L191.444 70.7407V71.1111H200.865H203.22V65.7407H208.111V30L200.865 30.1852Z" fill="#FFD150"/>
<path d="M196.428 64.0711L192.956 60.5998L189.714 63.8417L186.115 60.2419L176 70.3565L183.071 77.4275L196.428 64.0711Z" fill="#F76400"/>
<path d="M224.777 19.6364H204.916V22.1828H224.777V19.6364Z" fill="white"/>
<path d="M183.546 51.3611L191.728 51.3611L191.728 42.3333L187.546 42.3333L187.546 38L175.182 38L175.182 42.3333L171 42.3333L171 51L179.364 51L179.364 46.6667L183.546 46.6667L183.546 51.3611V51.3611Z" fill="#F76400"/>
</g>
<defs>
<clipPath id="clip0">
<rect width="240" height="80" fill="white"/>
</clipPath>
</defs>
</svg>
